<svg viewBox="0 0 170 149" fill="none" xmlns="http://www.w3.org/2000/svg">
<path d="M6.56365 50H11.4636V6.6C11.4636 3 14.4636 0 18.0636 0H66.9636C68.8636 0 70.7636 0.900002 71.9636 2.4L94.6636 27.1H151.764C155.364 27.1 158.264 30 158.364 33.6V49.9H163.364C166.964 49.9 169.864 52.8 169.864 56.4C169.864 56.8 169.864 57.1 169.764 57.5L159.364 141.8C159.064 143.8 157.964 145.5 156.364 146.6C155.762 147.207 155.045 147.688 154.255 148.014C153.465 148.34 152.618 148.505 151.764 148.5H18.0636C16.3636 148.5 14.7636 147.9 13.5636 146.7C11.8636 145.5 10.7636 143.7 10.4636 141.6L0.0636455 57.3C-0.436355 53.8 2.06365 50.5 5.66365 50.1H5.86365L6.56365 50ZM24.5636 50H145.264V40.3H91.7636V40.2C89.9636 40.2 88.2636 39.4 87.0636 38.1L64.0636 13.2H24.5636V50ZM155.864 63.1H13.9636L22.7636 134.5H146.964L155.864 63.1Z" fill="#c9ced4"/>
</svg>
