<svg width="14" height="14" viewBox="0 0 14 14" fill="none" xmlns="http://www.w3.org/2000/svg">
<g clip-path="url(#clip0_862_91)">
<path d="M12.1078 6.65872L12.0401 6.71997L7.00015 11.76L1.96015 6.71997C1.80303 6.56279 1.59283 6.47002 1.37082 6.45987C1.14881 6.44973 0.931027 6.52294 0.760231 6.66514L0.70073 6.71997C0.374064 7.04664 0.353647 7.5623 0.639481 7.9123L0.70073 7.97997L6.37073 13.65C6.69623 13.9761 7.21248 13.9965 7.56248 13.7106L7.63015 13.6494L13.3001 7.97939C13.4619 7.81796 13.5554 7.60052 13.5614 7.37206C13.5673 7.1436 13.4853 6.9216 13.3321 6.75197C13.179 6.58234 12.9665 6.47806 12.7386 6.4607C12.5107 6.44335 12.2849 6.51424 12.1078 6.65872ZM0.760231 0.248472L0.70073 0.303305C0.374064 0.629972 0.353647 1.14564 0.639481 1.49564L0.70073 1.56331L6.37073 7.2333C6.69623 7.55939 7.21248 7.5798 7.56248 7.29397L7.63015 7.23272L13.3001 1.56331C13.4631 1.40208 13.5577 1.18423 13.5641 0.955076C13.5705 0.725921 13.4884 0.503105 13.3347 0.332985C13.1811 0.162865 12.9677 0.058539 12.7391 0.0417113C12.5105 0.0248837 12.2841 0.0968501 12.1072 0.242638L12.0401 0.303305L7.00015 5.34331L1.96015 0.303305C1.80303 0.146123 1.59283 0.0533518 1.37082 0.0432065C1.14881 0.0330611 0.931027 0.106275 0.760231 0.248472Z" fill="white" fill-opacity="0.49"/>
</g>
<defs>
<clipPath id="clip0_862_91">
<rect width="14" height="14" fill="white" transform="matrix(-1 0 0 1 14 0)"/>
</clipPath>
</defs>
</svg>
